[img]http://img266.imageshack.us/img266/1120/newly.jpg[/img]
[code]
Newlyweds 2011 DVDSCR XviD AC3-26K

Imdb: 
http://www.imdb.com/title/tt1880418/

Plot:
Newlyweds Buzzy and Katie find their blissful life disrupted by the arrival of his half-sister and news of her sister's marriage troubles.

Sources:
WARLORD THNXS

Notes:
The encoded video from the source by warlord was yet again a poor attempt as the video quality was bad.! so here is my attempt :) i have added few filters to the video to make it look much nicer!! as you all know it wont be perfect due to the source so do not moan about quality.. you get this for free :)

Greetz:
Xtreme Encode|FYA|ILLUMANTI|CM8|RX|VISION|HDSCENE|NIGHTMAREZ|xTriLL|DTRG|CRYS|REMIXHD|BIDA|RX|REFILL|INSPiRAL|SIC
To all the people who have helped me :P you know who you are

Anything to offer email us @: 26k@hushmail.me

Video
ID                                       : 0
Format                                   : MPEG-4 Visual
Format profile                           : Advanced Simple@L5
Format settings, BVOP                    : 2
Format settings, QPel                    : No
Format settings, GMC                     : No warppoints
Format settings, Matrix                  : Default (H.263)
Codec ID                                 : XVID
Codec ID/Hint                            : XviD
Duration                                 : 1h 35mn
Bit rate                                 : 1 500 Kbps
Width                                    : 584 pixels
Height                                   : 328 pixels
Display aspect ratio                     : 16:9
Frame rate                               : 23.976 fps
Color space                              : YUV
Chroma subsampling                       : 4:2:0
Bit depth                                : 8 bits
Scan type                                : Progressive
Compression mode                         : Lossy
Bits/(Pixel*Frame)                       : 0.327
Stream size                              : 1.00 GiB (92%)
Writing library                          : XviD 63

Audio
ID                                       : 1
Format                                   : AC-3
Format/Info                              : Audio Coding 3
Mode extension                           : CM (complete main)
Codec ID                                 : 2000
Duration                                 : 1h 35mn
Bit rate mode                            : Constant
Bit rate                                 : 128 Kbps
Channel(s)                               : 2 channels
Channel positions                        : Front: L R
Sampling rate                            : 48.0 KHz
Bit depth                                : 16 bits
Compression mode                         : Lossy
Stream size                              : 87.4 MiB (8%)
Alignment                                : Aligned on interleaves
Interleave, duration                     : 32 ms (0.77 video frame)

[/code]
Screens:
[img]http://img140.imageshack.us/img140/6163/vlcsnap2012011213h41m12.png[/img]
[img]http://img100.imageshack.us/img100/8461/vlcsnap2012011213h41m16.png[/img]
[img]http://img692.imageshack.us/img692/5387/vlcsnap2012011213h41m20.png[/img]
[img]http://img265.imageshack.us/img265/2905/vlcsnap2012011213h41m39.png[/img]
[img]http://img525.imageshack.us/img525/9311/vlcsnap2012011213h41m44.png[/img]


[img]http://img851.imageshack.us/img851/5503/26ks.jpg[/img]#
Thank you smallz for banner!